<?xml version="1.0" encoding="utf-8"?>
<!-- Generator: Adobe Illustrator 16.0.3, SVG Export Plug-In . SVG Version: 6.00 Build 0)  -->
<!DOCTYPE svg PUBLIC "-//W3C//DTD SVG 1.1//EN" "http://www.w3.org/Graphics/SVG/1.1/DTD/svg11.dtd">
<svg version="1.1" id="Capa_1" xmlns="http://www.w3.org/2000/svg" xmlns:xlink="http://www.w3.org/1999/xlink" x="0px" y="0px"
	 width="152.326px" height="193.397px" viewBox="221.477 227.548 152.326 193.397"
	 enable-background="new 221.477 227.548 152.326 193.397" xml:space="preserve">
<path fill="#BF2226" d="M373.629,251.166c0.11-0.872,0.174-1.758,0.174-2.66c0-0.902-0.063-1.788-0.174-2.66
	c-1.308-10.318-10.11-18.298-20.785-18.298H221.477v193.397h131.367c10.674,0,19.478-7.98,20.785-18.299
	c0.11-0.871,0.174-1.758,0.174-2.66s-0.063-1.788-0.174-2.66V251.166z M315.006,385.818l-41.398-54.38v54.38h-29.997V262.674h29.997
	v54.027l41.048-54.027h35.26l-47.714,60.343l49.468,62.801H315.006z"/>
</svg>
