<svg width="24" height="24" viewBox="0 0 15 15" fill="none" xmlns="http://www.w3.org/2000/svg" style="position: absolute; bottom: 6px; right: -16px;"><path d="M7.60708 5.73162L7.60708 1.41915M7.60708 7.60634L1.4199 7.60634M7.60708 7.60634L10.1518 7.60634M7.60708 7.60634L7.60708 10.151M10.1518 7.60634C10.1518 8.10366 10.3493 8.58062 10.701 8.93228C11.0527 9.28394 11.5296 9.4815 12.0269 9.4815C12.5243 9.4815 13.0012 9.28394 13.3529 8.93228C13.7045 8.58062 13.9021 8.10366 13.9021 7.60634C13.9021 7.10902 13.7045 6.63206 13.3529 6.2804C13.0012 5.92874 12.5243 5.73118 12.0269 5.73118C11.5296 5.73118 11.0527 5.92874 10.701 6.2804C10.3493 6.63206 10.1518 7.10901 10.1518 7.60634ZM7.60708 10.151C7.10976 10.151 6.63305 10.3482 6.28139 10.6998C5.92972 11.0515 5.73216 11.5284 5.73216 12.0258C5.73216 12.5231 5.92972 13 6.28139 13.3517C6.63305 13.7034 7.11 13.9009 7.60732 13.9009C8.10465 13.9009 8.5816 13.7034 8.93326 13.3517C9.10738 13.1776 9.24551 12.9709 9.33974 12.7434C9.43398 12.5158 9.48248 12.272 9.48248 12.0258C9.48248 11.7795 9.43398 11.5357 9.33974 11.3082C9.24551 11.0807 9.10738 10.8739 8.93326 10.6998C8.5816 10.3482 8.10441 10.151 7.60708 10.151Z" stroke="currentColor" stroke-linecap="round" stroke-linejoin="round" stroke-width="1.4"></path></svg>