<?xml version="1.0" encoding="utf-8"?>
<!-- Generator: Adobe Illustrator 27.1.0, SVG Export Plug-In . SVG Version: 6.00 Build 0)  -->
<svg version="1.1" id="Capa_1" xmlns="http://www.w3.org/2000/svg" xmlns:xlink="http://www.w3.org/1999/xlink" x="0px" y="0px"
	 viewBox="0 0 59 76" style="enable-background:new 0 0 59 76;" xml:space="preserve">
<style type="text/css">
	.st0{fill:#6D6D6D;}
</style>
<g>
	<path class="st0" d="M42.1,5.5C37.5,1.1,31-1.4,24.8,0.8C18.3,3,13.7,8.9,10.2,14.5C2.8,26.2-3,43.6,1.7,57.3
		c5.9,17.1,26.5,22.9,41.9,15.6c9.3-4.4,15.2-14.2,15.4-24.3C58.8,33.7,53.1,15.9,42.1,5.5z M18.2,64.7C4.8,57.1,8.1,40.5,12.6,28.6
		c3.1-8.3,11.6-25.7,22.6-18c5.3,3.8,8.7,11.1,11,16.9c2.6,6.7,4.3,13.9,4.4,21C50.2,64.9,31.2,72.2,18.2,64.7z"/>
	<g>
		<path class="st0" d="M13.8,39.8c-0.8,4.2-0.7,8.7,0.3,12.9c1.9,8,8.7,12.2,16.6,12.4c4.8,0.1,4.8-7.4,0-7.5
			c-5.5-0.1-8.6-2.8-9.7-8.1c-0.4-1.8-0.3-3.8-0.2-5.7c0-0.3,0.2-2.2,0.1-1.2c0-0.3,0.1-0.5,0.1-0.8C22,37.1,14.8,35.1,13.8,39.8
			L13.8,39.8z"/>
	</g>
</g>
</svg>
