<?xml version="1.0" encoding="UTF-8"?>
<svg id="Capa_2" data-name="Capa 2" xmlns="http://www.w3.org/2000/svg" viewBox="0 0 216 190">
  <defs>
    <style>
      .cls-1 {
        stroke: #303032;
        stroke-width: 3px;
      }

      .cls-1, .cls-2 {
        fill: none;
        stroke-miterlimit: 10;
      }

      .cls-2 {
        stroke: #303031;
        stroke-width: 5px;
      }
    </style>
  </defs>
  <g id="Capa_1-2" data-name="Capa 1">
    <g>
      <rect class="cls-1" x="1.5" y="1.5" width="213" height="187" rx="50" ry="50"/>
      <g>
        <path class="cls-2" d="m61,107s-4.6-21.7-2.55-36.26c2.04-14.55,7.91-34.03,34.21-37.9,26.3-3.87,40.09,11.35,44.68,29.22,4.6,17.87,2.55,40.09,9.45,51.57,6.89,11.49,13.28,16.09,10.72,21.19-2.55,5.11-7.28,5.36-14.68,2.81-7.4-2.55-12.13-7.91-16.21-2.17-5.34,7.51-3.83,12.13-8.68,13.4s-8.3-6-10.6-9.32c-2.3-3.32-7.28-2.68-9.06.89-1.79,3.57-1.91,14.68-9.7,17.11-3.78,1.18-13.66-2.3-20.3-21.96s-7.28-28.6-7.28-28.6Z"/>
        <path class="cls-2" d="m107.85,90.9c1.29,6.79-.73,12.87-4.51,13.59-3.78.72-7.88-4.21-9.16-11-1.29-6.79.73-12.87,4.51-13.59,3.78-.72,7.88,4.21,9.16,11Z"/>
        <path class="cls-2" d="m119.15,57.49c3.98,8.37,3.91,16.72-.15,18.65s-10.58-3.29-14.56-11.66c-3.98-8.37-3.91-16.72.15-18.65,4.06-1.93,10.58,3.29,14.56,11.66Z"/>
        <path class="cls-2" d="m88.97,68.36c-2.8,8.83-8.55,14.89-12.83,13.53-4.29-1.36-5.49-9.62-2.69-18.45,2.8-8.83,8.55-14.89,12.83-13.53s5.49,9.62,2.69,18.45Z"/>
      </g>
    </g>
  </g>
</svg>