<svg width="66" height="23" viewBox="0 0 66 23" fill="none" xmlns="http://www.w3.org/2000/svg">
<path d="M6.1875 10.8125V22H0.5V0.75H5.78125L13.9688 12.2812V0.75H19.6563V22H14.3438L6.1875 10.8125ZM59.7642 11.7187L56.8892 15.5937L54.6079 15.9062L51.1704 11.7187V22H45.4829V0.75H49.3892L55.7954 8.84375L61.6704 0.75H65.4517V22H59.7642V11.7187Z" fill="#F5F5F5"/>
<path d="M36.6074 13.9062H32.9512L33.4512 9.75H41.7324V20.8437C40.9616 21.3229 39.847 21.7083 38.3887 22C36.9512 22.2708 35.6387 22.4063 34.4512 22.4063C32.1595 22.4063 30.1595 21.9792 28.4512 21.125C26.7428 20.25 25.4199 18.9896 24.4824 17.3437C23.5658 15.6979 23.1074 13.7396 23.1074 11.4687C23.1074 9.21875 23.6178 7.25 24.6387 5.5625C25.6803 3.875 27.0762 2.58333 28.8262 1.6875C30.597 0.791666 32.5345 0.343749 34.6387 0.343749C35.7845 0.343749 37.0137 0.499999 38.3262 0.812499C39.6595 1.125 40.722 1.55208 41.5137 2.09375L39.8262 5.9375C38.7845 5.58333 37.8678 5.34375 37.0762 5.21875C36.2845 5.07292 35.4928 5 34.7012 5C33.8053 5 32.9095 5.25 32.0137 5.75C31.1387 6.22917 30.4095 6.95833 29.8262 7.9375C29.2637 8.89583 28.9824 10.0625 28.9824 11.4375C28.9824 12.875 29.2533 14.0729 29.7949 15.0312C30.3366 15.9687 31.0345 16.6562 31.8887 17.0937C32.7428 17.5312 33.6491 17.75 34.6074 17.75C35.2324 17.75 35.8991 17.6875 36.6074 17.5625V13.9062Z" fill="#D711FF"/>
</svg>
